<mxfile host="65bd71144e" modified="2021-02-27T09:41:49.821Z" agent="5.0 (X11; Linux x86_64) AppleWebKit/537.36 (KHTML, like Gecko) Code/1.53.2 Chrome/87.0.4280.141 Electron/11.2.1 Safari/537.36" etag="POuqnOYYeN-6gyEQTSvp" version="14.2.4" type="embed">
    <diagram id="ndhdr9Jm2pPvL_4DX8LL" name="Page-1">
        <mxGraphModel dx="1125" dy="482" grid="1" gridSize="10" guides="1" tooltips="1" connect="1" arrows="1" fold="1" page="1" pageScale="1" pageWidth="850" pageHeight="1100" math="1" shadow="0">
            <root>
                <mxCell id="0"/>
                <mxCell id="1" parent="0"/>
                <mxCell id="2" value="&lt;div&gt;&lt;b&gt;&lt;font style=&quot;font-size: 16px&quot;&gt;Queue with Singly Linked List&lt;/font&gt;&lt;/b&gt;&lt;/div&gt;" style="rounded=0;whiteSpace=wrap;html=1;align=center;" parent="1" vertex="1">
                    <mxGeometry x="150" y="170" width="560" height="30" as="geometry"/>
                </mxCell>
                <mxCell id="p-__Q0h79dUyB1trFCNl-5" style="edgeStyle=orthogonalEdgeStyle;orthogonalLoop=1;jettySize=auto;html=1;" parent="1" source="p-__Q0h79dUyB1trFCNl-1" target="p-__Q0h79dUyB1trFCNl-4" edge="1">
                    <mxGeometry relative="1" as="geometry"/>
                </mxCell>
                <mxCell id="pTzZrNMU9_gf19CRBe8K-10" style="edgeStyle=orthogonalEdgeStyle;curved=1;orthogonalLoop=1;jettySize=auto;html=1;exitX=0;exitY=0.75;exitDx=0;exitDy=0;entryX=1;entryY=0.5;entryDx=0;entryDy=0;fontFamily=Lucida Console;fontSize=14;noLabel=1;fontColor=none;strokeColor=#CCCCCC;" parent="1" source="p-__Q0h79dUyB1trFCNl-1" target="pTzZrNMU9_gf19CRBe8K-5" edge="1">
                    <mxGeometry relative="1" as="geometry">
                        <Array as="points">
                            <mxPoint x="251" y="302"/>
                            <mxPoint x="251" y="320"/>
                        </Array>
                    </mxGeometry>
                </mxCell>
                <mxCell id="p-__Q0h79dUyB1trFCNl-1" value="1" style="whiteSpace=wrap;html=1;fillColor=#66B2FF;" parent="1" vertex="1">
                    <mxGeometry x="280" y="280" width="50" height="30" as="geometry"/>
                </mxCell>
                <mxCell id="p-__Q0h79dUyB1trFCNl-7" style="edgeStyle=orthogonalEdgeStyle;orthogonalLoop=1;jettySize=auto;html=1;" parent="1" source="p-__Q0h79dUyB1trFCNl-4" target="p-__Q0h79dUyB1trFCNl-6" edge="1">
                    <mxGeometry relative="1" as="geometry"/>
                </mxCell>
                <mxCell id="p-__Q0h79dUyB1trFCNl-4" value="3" style="whiteSpace=wrap;html=1;gradientDirection=west;fillColor=#66B2FF;" parent="1" vertex="1">
                    <mxGeometry x="360" y="280" width="50" height="30" as="geometry"/>
                </mxCell>
                <mxCell id="p-__Q0h79dUyB1trFCNl-9" style="edgeStyle=orthogonalEdgeStyle;orthogonalLoop=1;jettySize=auto;html=1;entryX=0;entryY=0.5;entryDx=0;entryDy=0;" parent="1" source="p-__Q0h79dUyB1trFCNl-6" target="p-__Q0h79dUyB1trFCNl-8" edge="1">
                    <mxGeometry relative="1" as="geometry"/>
                </mxCell>
                <mxCell id="p-__Q0h79dUyB1trFCNl-6" value="3" style="whiteSpace=wrap;html=1;gradientDirection=west;fillColor=#66B2FF;" parent="1" vertex="1">
                    <mxGeometry x="440" y="280" width="50" height="30" as="geometry"/>
                </mxCell>
                <mxCell id="pTzZrNMU9_gf19CRBe8K-12" style="edgeStyle=orthogonalEdgeStyle;curved=1;orthogonalLoop=1;jettySize=auto;html=1;fontFamily=Lucida Console;fontSize=14;fontColor=#00CC00;targetPerimeterSpacing=0;startArrow=classic;startFill=1;endArrow=none;endFill=0;strokeColor=#CCCCCC;exitX=1;exitY=0.25;exitDx=0;exitDy=0;" parent="1" source="p-__Q0h79dUyB1trFCNl-8" target="pTzZrNMU9_gf19CRBe8K-9" edge="1">
                    <mxGeometry relative="1" as="geometry"/>
                </mxCell>
                <mxCell id="p-__Q0h79dUyB1trFCNl-8" value="2" style="whiteSpace=wrap;html=1;gradientDirection=west;fillColor=#66B2FF;" parent="1" vertex="1">
                    <mxGeometry x="520" y="280" width="50" height="30" as="geometry"/>
                </mxCell>
                <mxCell id="p-__Q0h79dUyB1trFCNl-15" value="addToFront: \(O(1)\)" style="text;html=1;fillColor=none;align=center;verticalAlign=middle;whiteSpace=wrap;labelBackgroundColor=none;fontStyle=0" parent="1" vertex="1">
                    <mxGeometry x="255" y="230" width="115" height="20" as="geometry"/>
                </mxCell>
                <mxCell id="pTzZrNMU9_gf19CRBe8K-1" value="removeFromFront: \(O(1)\)" style="text;html=1;fillColor=none;align=center;verticalAlign=middle;whiteSpace=wrap;labelBackgroundColor=none;fontColor=#00CC00;fontStyle=1" parent="1" vertex="1">
                    <mxGeometry x="235" y="250" width="155" height="20" as="geometry"/>
                </mxCell>
                <mxCell id="pTzZrNMU9_gf19CRBe8K-2" value="addToBack: \(O(1)\)" style="text;html=1;fillColor=none;align=center;verticalAlign=middle;whiteSpace=wrap;labelBackgroundColor=none;fontStyle=1;fontColor=#00CC00;" parent="1" vertex="1">
                    <mxGeometry x="487.5" y="230" width="115" height="20" as="geometry"/>
                </mxCell>
                <mxCell id="pTzZrNMU9_gf19CRBe8K-3" value="removeFromBack: \(O(n)\)" style="text;html=1;fillColor=none;align=center;verticalAlign=middle;whiteSpace=wrap;labelBackgroundColor=none;fontStyle=0;" parent="1" vertex="1">
                    <mxGeometry x="467.5" y="250" width="155" height="20" as="geometry"/>
                </mxCell>
                <mxCell id="pTzZrNMU9_gf19CRBe8K-4" value="null" style="text;html=1;fillColor=none;align=center;verticalAlign=middle;whiteSpace=wrap;labelBackgroundColor=none;fontStyle=0;fontSize=14;fontFamily=Ubunto Mono;fontSource=https%3A%2F%2Ffonts.googleapis.com%2Fcss%3Ffamily%3DUbunto%2BMono;" parent="1" vertex="1">
                    <mxGeometry x="578.5" y="320" width="24" height="20" as="geometry"/>
                </mxCell>
                <mxCell id="pTzZrNMU9_gf19CRBe8K-5" value="&lt;font style=&quot;font-size: 12px&quot;&gt;dequeue&lt;/font&gt;" style="text;html=1;fillColor=none;align=center;verticalAlign=middle;whiteSpace=wrap;labelBackgroundColor=none;fontStyle=0;fontSize=14;fontFamily=Ubunto Mono;fontSource=https%3A%2F%2Ffonts.googleapis.com%2Fcss%3Ffamily%3DUbunto%2BMono;" parent="1" vertex="1">
                    <mxGeometry x="160" y="310" width="62" height="20" as="geometry"/>
                </mxCell>
                <mxCell id="pTzZrNMU9_gf19CRBe8K-9" value="&lt;font style=&quot;font-size: 12px&quot;&gt;enqueue&lt;/font&gt;" style="text;html=1;fillColor=none;align=center;verticalAlign=bottom;whiteSpace=wrap;labelBackgroundColor=none;fontStyle=0;fontSize=14;fontFamily=Ubunto Mono;fontSource=https%3A%2F%2Ffonts.googleapis.com%2Fcss%3Ffamily%3DUbunto%2BMono;horizontal=1;" parent="1" vertex="1">
                    <mxGeometry x="630" y="260" width="60" height="20" as="geometry"/>
                </mxCell>
                <mxCell id="pTzZrNMU9_gf19CRBe8K-11" style="edgeStyle=orthogonalEdgeStyle;curved=1;orthogonalLoop=1;jettySize=auto;html=1;exitX=0.5;exitY=1;exitDx=0;exitDy=0;fontFamily=Lucida Console;fontSize=14;fontColor=#00CC00;" parent="1" source="pTzZrNMU9_gf19CRBe8K-9" target="pTzZrNMU9_gf19CRBe8K-9" edge="1">
                    <mxGeometry relative="1" as="geometry"/>
                </mxCell>
                <mxCell id="p-__Q0h79dUyB1trFCNl-10" style="edgeStyle=orthogonalEdgeStyle;orthogonalLoop=1;jettySize=auto;html=1;rounded=0;" parent="1" source="p-__Q0h79dUyB1trFCNl-8" edge="1">
                    <mxGeometry relative="1" as="geometry">
                        <mxPoint x="590" y="320" as="targetPoint"/>
                    </mxGeometry>
                </mxCell>
                <mxCell id="5" value="&lt;div&gt;&lt;b&gt;&lt;font style=&quot;font-size: 16px&quot;&gt;Queue with Array List&lt;/font&gt;&lt;/b&gt;&lt;/div&gt;" style="rounded=0;whiteSpace=wrap;html=1;align=center;" parent="1" vertex="1">
                    <mxGeometry x="150" y="400" width="560" height="30" as="geometry"/>
                </mxCell>
                <mxCell id="27" value="&lt;font data-font-src=&quot;https://fonts.googleapis.com/css?family=Ubunto+Mono&quot; face=&quot;Ubunto Mono&quot;&gt;null&lt;/font&gt;" style="whiteSpace=wrap;html=1;gradientDirection=west;" parent="1" vertex="1">
                    <mxGeometry x="337" y="490" width="30" height="30" as="geometry"/>
                </mxCell>
                <mxCell id="28" value="&lt;font data-font-src=&quot;https://fonts.googleapis.com/css?family=Ubunto+Mono&quot; face=&quot;Ubunto Mono&quot;&gt;null&lt;/font&gt;" style="whiteSpace=wrap;html=1;gradientDirection=west;" parent="1" vertex="1">
                    <mxGeometry x="307" y="490" width="30" height="30" as="geometry"/>
                </mxCell>
                <mxCell id="23" value="&lt;font data-font-src=&quot;https://fonts.googleapis.com/css?family=Ubunto+Mono&quot; face=&quot;Ubunto Mono&quot;&gt;null&lt;/font&gt;" style="whiteSpace=wrap;html=1;gradientDirection=west;" parent="1" vertex="1">
                    <mxGeometry x="487" y="490" width="30" height="30" as="geometry"/>
                </mxCell>
                <mxCell id="8" value="1" style="whiteSpace=wrap;html=1;fillColor=#66B2FF;" parent="1" vertex="1">
                    <mxGeometry x="367" y="490" width="30" height="30" as="geometry"/>
                </mxCell>
                <mxCell id="10" value="3" style="whiteSpace=wrap;html=1;gradientDirection=west;fillColor=#66B2FF;" parent="1" vertex="1">
                    <mxGeometry x="397" y="490" width="30" height="30" as="geometry"/>
                </mxCell>
                <mxCell id="12" value="3" style="whiteSpace=wrap;html=1;gradientDirection=west;fillColor=#66B2FF;" parent="1" vertex="1">
                    <mxGeometry x="427" y="490" width="30" height="30" as="geometry"/>
                </mxCell>
                <mxCell id="14" value="2" style="whiteSpace=wrap;html=1;gradientDirection=west;fillColor=#66B2FF;" parent="1" vertex="1">
                    <mxGeometry x="457" y="490" width="30" height="30" as="geometry"/>
                </mxCell>
                <mxCell id="20" value="&lt;font style=&quot;font-size: 12px&quot;&gt;dequeue&lt;/font&gt;" style="text;html=1;fillColor=none;align=center;verticalAlign=middle;whiteSpace=wrap;labelBackgroundColor=none;fontStyle=0;fontSize=14;fontFamily=Ubunto Mono;fontSource=https%3A%2F%2Ffonts.googleapis.com%2Fcss%3Ffamily%3DUbunto%2BMono;" parent="1" vertex="1">
                    <mxGeometry x="270" y="520" width="52" height="20" as="geometry"/>
                </mxCell>
                <mxCell id="7" style="edgeStyle=orthogonalEdgeStyle;curved=1;orthogonalLoop=1;jettySize=auto;html=1;exitX=0;exitY=0.75;exitDx=0;exitDy=0;entryX=1;entryY=0.5;entryDx=0;entryDy=0;fontFamily=Lucida Console;fontSize=14;noLabel=1;fontColor=none;strokeColor=#CCCCCC;" parent="1" source="8" target="20" edge="1">
                    <mxGeometry x="150" y="400" as="geometry">
                        <Array as="points">
                            <mxPoint x="357" y="513"/>
                            <mxPoint x="357" y="530"/>
                            <mxPoint x="337" y="530"/>
                        </Array>
                    </mxGeometry>
                </mxCell>
                <mxCell id="21" value="&lt;font style=&quot;font-size: 12px&quot;&gt;enqueue&lt;/font&gt;" style="text;html=1;fillColor=none;align=center;verticalAlign=bottom;whiteSpace=wrap;labelBackgroundColor=none;fontStyle=0;fontSize=14;fontFamily=Ubunto Mono;fontSource=https%3A%2F%2Ffonts.googleapis.com%2Fcss%3Ffamily%3DUbunto%2BMono;horizontal=1;" parent="1" vertex="1">
                    <mxGeometry x="517" y="470" width="53" height="20" as="geometry"/>
                </mxCell>
                <mxCell id="13" style="edgeStyle=orthogonalEdgeStyle;curved=1;orthogonalLoop=1;jettySize=auto;html=1;fontFamily=Lucida Console;fontSize=14;fontColor=#00CC00;targetPerimeterSpacing=0;startArrow=classic;startFill=1;endArrow=none;endFill=0;strokeColor=#CCCCCC;exitX=1;exitY=0.25;exitDx=0;exitDy=0;" parent="1" source="14" target="21" edge="1">
                    <mxGeometry x="150" y="400" as="geometry"/>
                </mxCell>
                <mxCell id="22" style="edgeStyle=orthogonalEdgeStyle;curved=1;orthogonalLoop=1;jettySize=auto;html=1;exitX=0.5;exitY=1;exitDx=0;exitDy=0;fontFamily=Lucida Console;fontSize=14;fontColor=#00CC00;" parent="1" source="21" target="21" edge="1">
                    <mxGeometry x="150" y="400" as="geometry"/>
                </mxCell>
                <mxCell id="24" value="&lt;font data-font-src=&quot;https://fonts.googleapis.com/css?family=Ubunto+Mono&quot; face=&quot;Ubunto Mono&quot;&gt;null&lt;/font&gt;" style="whiteSpace=wrap;html=1;gradientDirection=west;" parent="1" vertex="1">
                    <mxGeometry x="517" y="490" width="30" height="30" as="geometry"/>
                </mxCell>
                <mxCell id="26" value="&lt;font data-font-src=&quot;https://fonts.googleapis.com/css?family=Ubunto+Mono&quot; face=&quot;Ubunto Mono&quot;&gt;null&lt;/font&gt;" style="whiteSpace=wrap;html=1;gradientDirection=west;" parent="1" vertex="1">
                    <mxGeometry x="547" y="490" width="30" height="30" as="geometry"/>
                </mxCell>
                <mxCell id="31" value="&lt;font style=&quot;font-size: 7px;&quot;&gt;0&lt;/font&gt;" style="text;html=1;fillColor=none;align=center;verticalAlign=middle;whiteSpace=wrap;labelBackgroundColor=none;fontStyle=0;fontSize=7;fontFamily=Ubunto Mono;fontSource=https%3A%2F%2Ffonts.googleapis.com%2Fcss%3Ffamily%3DUbunto%2BMono;horizontal=1;fontColor=#a12828;labelPosition=center;verticalLabelPosition=middle;" parent="1" vertex="1">
                    <mxGeometry x="307" y="510" width="30" height="10" as="geometry"/>
                </mxCell>
                <mxCell id="32" value="&lt;font style=&quot;font-size: 7px;&quot;&gt;1&lt;/font&gt;" style="text;html=1;fillColor=none;align=center;verticalAlign=middle;whiteSpace=wrap;labelBackgroundColor=none;fontStyle=0;fontSize=7;fontFamily=Ubunto Mono;fontSource=https%3A%2F%2Ffonts.googleapis.com%2Fcss%3Ffamily%3DUbunto%2BMono;horizontal=1;fontColor=#a12828;labelPosition=center;verticalLabelPosition=middle;" parent="1" vertex="1">
                    <mxGeometry x="337" y="510" width="30" height="10" as="geometry"/>
                </mxCell>
                <mxCell id="33" value="&lt;font style=&quot;font-size: 7px;&quot;&gt;2&lt;/font&gt;" style="text;html=1;fillColor=none;align=center;verticalAlign=middle;whiteSpace=wrap;labelBackgroundColor=none;fontStyle=0;fontSize=7;fontFamily=Ubunto Mono;fontSource=https%3A%2F%2Ffonts.googleapis.com%2Fcss%3Ffamily%3DUbunto%2BMono;horizontal=1;fontColor=#a12828;labelPosition=center;verticalLabelPosition=middle;" parent="1" vertex="1">
                    <mxGeometry x="367" y="510" width="30" height="10" as="geometry"/>
                </mxCell>
                <mxCell id="34" value="&lt;font style=&quot;font-size: 7px;&quot;&gt;3&lt;/font&gt;" style="text;html=1;fillColor=none;align=center;verticalAlign=middle;whiteSpace=wrap;labelBackgroundColor=none;fontStyle=0;fontSize=7;fontFamily=Ubunto Mono;fontSource=https%3A%2F%2Ffonts.googleapis.com%2Fcss%3Ffamily%3DUbunto%2BMono;horizontal=1;fontColor=#a12828;labelPosition=center;verticalLabelPosition=middle;" parent="1" vertex="1">
                    <mxGeometry x="397" y="510" width="30" height="10" as="geometry"/>
                </mxCell>
                <mxCell id="35" value="&lt;font style=&quot;font-size: 7px;&quot;&gt;4&lt;/font&gt;" style="text;html=1;fillColor=none;align=center;verticalAlign=middle;whiteSpace=wrap;labelBackgroundColor=none;fontStyle=0;fontSize=7;fontFamily=Ubunto Mono;fontSource=https%3A%2F%2Ffonts.googleapis.com%2Fcss%3Ffamily%3DUbunto%2BMono;horizontal=1;fontColor=#a12828;labelPosition=center;verticalLabelPosition=middle;" parent="1" vertex="1">
                    <mxGeometry x="427" y="510" width="30" height="10" as="geometry"/>
                </mxCell>
                <mxCell id="36" value="&lt;font style=&quot;font-size: 7px;&quot;&gt;5&lt;/font&gt;" style="text;html=1;fillColor=none;align=center;verticalAlign=middle;whiteSpace=wrap;labelBackgroundColor=none;fontStyle=0;fontSize=7;fontFamily=Ubunto Mono;fontSource=https%3A%2F%2Ffonts.googleapis.com%2Fcss%3Ffamily%3DUbunto%2BMono;horizontal=1;fontColor=#a12828;labelPosition=center;verticalLabelPosition=middle;" parent="1" vertex="1">
                    <mxGeometry x="457" y="510" width="30" height="10" as="geometry"/>
                </mxCell>
                <mxCell id="37" value="&lt;font style=&quot;font-size: 7px;&quot;&gt;6&lt;/font&gt;" style="text;html=1;fillColor=none;align=center;verticalAlign=middle;whiteSpace=wrap;labelBackgroundColor=none;fontStyle=0;fontSize=7;fontFamily=Ubunto Mono;fontSource=https%3A%2F%2Ffonts.googleapis.com%2Fcss%3Ffamily%3DUbunto%2BMono;horizontal=1;fontColor=#a12828;labelPosition=center;verticalLabelPosition=middle;" parent="1" vertex="1">
                    <mxGeometry x="487" y="510" width="30" height="10" as="geometry"/>
                </mxCell>
                <mxCell id="38" value="&lt;font style=&quot;font-size: 7px;&quot;&gt;7&lt;/font&gt;" style="text;html=1;fillColor=none;align=center;verticalAlign=middle;whiteSpace=wrap;labelBackgroundColor=none;fontStyle=0;fontSize=7;fontFamily=Ubunto Mono;fontSource=https%3A%2F%2Ffonts.googleapis.com%2Fcss%3Ffamily%3DUbunto%2BMono;horizontal=1;fontColor=#a12828;labelPosition=center;verticalLabelPosition=middle;" parent="1" vertex="1">
                    <mxGeometry x="517" y="510" width="30" height="10" as="geometry"/>
                </mxCell>
                <mxCell id="39" value="&lt;font style=&quot;font-size: 7px;&quot;&gt;8&lt;/font&gt;" style="text;html=1;fillColor=none;align=center;verticalAlign=middle;whiteSpace=wrap;labelBackgroundColor=none;fontStyle=0;fontSize=7;fontFamily=Ubunto Mono;fontSource=https%3A%2F%2Ffonts.googleapis.com%2Fcss%3Ffamily%3DUbunto%2BMono;horizontal=1;fontColor=#a12828;labelPosition=center;verticalLabelPosition=middle;" parent="1" vertex="1">
                    <mxGeometry x="547" y="510" width="30" height="10" as="geometry"/>
                </mxCell>
                <mxCell id="40" value="&lt;font style=&quot;font-size: 12px&quot; data-font-src=&quot;https://fonts.googleapis.com/css?family=Nunito&quot; face=&quot;Nunito&quot;&gt;front&lt;/font&gt;" style="text;html=1;fillColor=none;align=center;verticalAlign=middle;whiteSpace=wrap;labelBackgroundColor=none;fontStyle=0;fontSize=14;fontFamily=Ubunto Mono;fontSource=https%3A%2F%2Ffonts.googleapis.com%2Fcss%3Ffamily%3DUbunto%2BMono;" parent="1" vertex="1">
                    <mxGeometry x="334" y="540" width="32" height="10" as="geometry"/>
                </mxCell>
                <mxCell id="42" style="edgeStyle=orthogonalEdgeStyle;curved=1;orthogonalLoop=1;jettySize=auto;html=1;exitX=1;exitY=0.5;exitDx=0;exitDy=0;entryX=0.5;entryY=1;entryDx=0;entryDy=0;fontFamily=Lucida Console;fontSize=14;noLabel=1;fontColor=none;strokeColor=#CCCCCC;" parent="1" source="40" target="33" edge="1">
                    <mxGeometry x="150" y="400" as="geometry">
                        <Array as="points">
                            <mxPoint x="382" y="545"/>
                        </Array>
                        <mxPoint x="377" y="522.5" as="sourcePoint"/>
                        <mxPoint x="332" y="540" as="targetPoint"/>
                    </mxGeometry>
                </mxCell>
                <mxCell id="44" value="&lt;font style=&quot;font-size: 12px&quot; data-font-src=&quot;https://fonts.googleapis.com/css?family=Nunito&quot; face=&quot;Nunito&quot;&gt;back&lt;/font&gt;" style="text;html=1;fillColor=none;align=center;verticalAlign=middle;whiteSpace=wrap;labelBackgroundColor=none;fontStyle=0;fontSize=14;fontFamily=Ubunto Mono;fontSource=https%3A%2F%2Ffonts.googleapis.com%2Fcss%3Ffamily%3DUbunto%2BMono;" parent="1" vertex="1">
                    <mxGeometry x="486" y="540" width="32" height="10" as="geometry"/>
                </mxCell>
                <mxCell id="45" style="edgeStyle=orthogonalEdgeStyle;curved=1;orthogonalLoop=1;jettySize=auto;html=1;exitX=0;exitY=0.5;exitDx=0;exitDy=0;entryX=0.5;entryY=1;entryDx=0;entryDy=0;fontFamily=Lucida Console;fontSize=14;noLabel=1;fontColor=none;strokeColor=#CCCCCC;" parent="1" source="44" target="36" edge="1">
                    <mxGeometry x="150" y="400" as="geometry">
                        <Array as="points">
                            <mxPoint x="472" y="545"/>
                        </Array>
                        <mxPoint x="387" y="532.5" as="sourcePoint"/>
                        <mxPoint x="392" y="530" as="targetPoint"/>
                    </mxGeometry>
                </mxCell>
                <mxCell id="48" value="&lt;font data-font-src=&quot;https://fonts.googleapis.com/css?family=Ubunto+Mono&quot; face=&quot;Ubunto Mono&quot;&gt;null&lt;/font&gt;" style="whiteSpace=wrap;html=1;gradientDirection=west;" parent="1" vertex="1">
                    <mxGeometry x="485" y="610" width="30" height="30" as="geometry"/>
                </mxCell>
                <mxCell id="49" value="&lt;font data-font-src=&quot;https://fonts.googleapis.com/css?family=Ubunto+Mono&quot; face=&quot;Ubunto Mono&quot;&gt;null&lt;/font&gt;" style="whiteSpace=wrap;html=1;gradientDirection=west;" parent="1" vertex="1">
                    <mxGeometry x="455" y="610" width="30" height="30" as="geometry"/>
                </mxCell>
                <mxCell id="50" value="&lt;font data-font-src=&quot;https://fonts.googleapis.com/css?family=Ubunto+Mono&quot; face=&quot;Ubunto Mono&quot;&gt;null&lt;/font&gt;" style="whiteSpace=wrap;html=1;gradientDirection=west;" parent="1" vertex="1">
                    <mxGeometry x="365" y="610" width="30" height="30" as="geometry"/>
                </mxCell>
                <mxCell id="51" value="1" style="whiteSpace=wrap;html=1;fillColor=#66B2FF;" parent="1" vertex="1">
                    <mxGeometry x="515" y="610" width="30" height="30" as="geometry"/>
                </mxCell>
                <mxCell id="52" value="3" style="whiteSpace=wrap;html=1;gradientDirection=west;fillColor=#66B2FF;" parent="1" vertex="1">
                    <mxGeometry x="545" y="610" width="30" height="30" as="geometry"/>
                </mxCell>
                <mxCell id="53" value="3" style="whiteSpace=wrap;html=1;gradientDirection=west;fillColor=#66B2FF;" parent="1" vertex="1">
                    <mxGeometry x="305" y="610" width="30" height="30" as="geometry"/>
                </mxCell>
                <mxCell id="54" value="2" style="whiteSpace=wrap;html=1;gradientDirection=west;fillColor=#66B2FF;" parent="1" vertex="1">
                    <mxGeometry x="335" y="610" width="30" height="30" as="geometry"/>
                </mxCell>
                <mxCell id="55" value="&lt;font style=&quot;font-size: 12px&quot;&gt;dequeue&lt;/font&gt;" style="text;html=1;fillColor=none;align=center;verticalAlign=middle;whiteSpace=wrap;labelBackgroundColor=none;fontStyle=0;fontSize=14;fontFamily=Ubunto Mono;fontSource=https%3A%2F%2Ffonts.googleapis.com%2Fcss%3Ffamily%3DUbunto%2BMono;" parent="1" vertex="1">
                    <mxGeometry x="420" y="640" width="50" height="20" as="geometry"/>
                </mxCell>
                <mxCell id="56" style="edgeStyle=orthogonalEdgeStyle;curved=1;orthogonalLoop=1;jettySize=auto;html=1;exitX=0;exitY=0.75;exitDx=0;exitDy=0;entryX=1;entryY=0.5;entryDx=0;entryDy=0;fontFamily=Lucida Console;fontSize=14;noLabel=1;fontColor=none;strokeColor=#CCCCCC;" parent="1" source="51" target="55" edge="1">
                    <mxGeometry x="291" y="400" as="geometry">
                        <Array as="points">
                            <mxPoint x="505" y="633"/>
                            <mxPoint x="505" y="650"/>
                            <mxPoint x="485" y="650"/>
                        </Array>
                    </mxGeometry>
                </mxCell>
                <mxCell id="57" value="&lt;font style=&quot;font-size: 12px&quot;&gt;enqueue&lt;/font&gt;" style="text;html=1;fillColor=none;align=center;verticalAlign=bottom;whiteSpace=wrap;labelBackgroundColor=none;fontStyle=0;fontSize=14;fontFamily=Ubunto Mono;fontSource=https%3A%2F%2Ffonts.googleapis.com%2Fcss%3Ffamily%3DUbunto%2BMono;horizontal=1;" parent="1" vertex="1">
                    <mxGeometry x="395" y="590" width="60" height="20" as="geometry"/>
                </mxCell>
                <mxCell id="58" style="edgeStyle=orthogonalEdgeStyle;curved=1;orthogonalLoop=1;jettySize=auto;html=1;fontFamily=Lucida Console;fontSize=14;fontColor=#00CC00;targetPerimeterSpacing=0;startArrow=classic;startFill=1;endArrow=none;endFill=0;strokeColor=#CCCCCC;exitX=1;exitY=0.25;exitDx=0;exitDy=0;" parent="1" source="54" target="57" edge="1">
                    <mxGeometry x="21" y="400" as="geometry"/>
                </mxCell>
                <mxCell id="59" style="edgeStyle=orthogonalEdgeStyle;curved=1;orthogonalLoop=1;jettySize=auto;html=1;exitX=0.5;exitY=1;exitDx=0;exitDy=0;fontFamily=Lucida Console;fontSize=14;fontColor=#00CC00;" parent="1" source="57" target="57" edge="1">
                    <mxGeometry x="21" y="400" as="geometry"/>
                </mxCell>
                <mxCell id="60" value="&lt;font data-font-src=&quot;https://fonts.googleapis.com/css?family=Ubunto+Mono&quot; face=&quot;Ubunto Mono&quot;&gt;null&lt;/font&gt;" style="whiteSpace=wrap;html=1;gradientDirection=west;" parent="1" vertex="1">
                    <mxGeometry x="395" y="610" width="30" height="30" as="geometry"/>
                </mxCell>
                <mxCell id="61" value="&lt;font data-font-src=&quot;https://fonts.googleapis.com/css?family=Ubunto+Mono&quot; face=&quot;Ubunto Mono&quot;&gt;null&lt;/font&gt;" style="whiteSpace=wrap;html=1;gradientDirection=west;" parent="1" vertex="1">
                    <mxGeometry x="425" y="610" width="30" height="30" as="geometry"/>
                </mxCell>
                <mxCell id="62" value="&lt;font style=&quot;font-size: 7px&quot;&gt;5&lt;/font&gt;" style="text;html=1;fillColor=none;align=center;verticalAlign=middle;whiteSpace=wrap;labelBackgroundColor=none;fontStyle=0;fontSize=7;fontFamily=Ubunto Mono;fontSource=https%3A%2F%2Ffonts.googleapis.com%2Fcss%3Ffamily%3DUbunto%2BMono;horizontal=1;fontColor=#a12828;labelPosition=center;verticalLabelPosition=middle;" parent="1" vertex="1">
                    <mxGeometry x="455" y="630" width="30" height="10" as="geometry"/>
                </mxCell>
                <mxCell id="63" value="&lt;font style=&quot;font-size: 7px&quot;&gt;6&lt;/font&gt;" style="text;html=1;fillColor=none;align=center;verticalAlign=middle;whiteSpace=wrap;labelBackgroundColor=none;fontStyle=0;fontSize=7;fontFamily=Ubunto Mono;fontSource=https%3A%2F%2Ffonts.googleapis.com%2Fcss%3Ffamily%3DUbunto%2BMono;horizontal=1;fontColor=#a12828;labelPosition=center;verticalLabelPosition=middle;" parent="1" vertex="1">
                    <mxGeometry x="485" y="630" width="30" height="10" as="geometry"/>
                </mxCell>
                <mxCell id="64" value="&lt;font style=&quot;font-size: 7px&quot;&gt;7&lt;/font&gt;" style="text;html=1;fillColor=none;align=center;verticalAlign=middle;whiteSpace=wrap;labelBackgroundColor=none;fontStyle=0;fontSize=7;fontFamily=Ubunto Mono;fontSource=https%3A%2F%2Ffonts.googleapis.com%2Fcss%3Ffamily%3DUbunto%2BMono;horizontal=1;fontColor=#a12828;labelPosition=center;verticalLabelPosition=middle;" parent="1" vertex="1">
                    <mxGeometry x="515" y="630" width="30" height="10" as="geometry"/>
                </mxCell>
                <mxCell id="65" value="&lt;font style=&quot;font-size: 7px&quot;&gt;8&lt;/font&gt;" style="text;html=1;fillColor=none;align=center;verticalAlign=middle;whiteSpace=wrap;labelBackgroundColor=none;fontStyle=0;fontSize=7;fontFamily=Ubunto Mono;fontSource=https%3A%2F%2Ffonts.googleapis.com%2Fcss%3Ffamily%3DUbunto%2BMono;horizontal=1;fontColor=#a12828;labelPosition=center;verticalLabelPosition=middle;" parent="1" vertex="1">
                    <mxGeometry x="545" y="630" width="30" height="10" as="geometry"/>
                </mxCell>
                <mxCell id="66" value="&lt;font style=&quot;font-size: 7px&quot;&gt;0&lt;/font&gt;" style="text;html=1;fillColor=none;align=center;verticalAlign=middle;whiteSpace=wrap;labelBackgroundColor=none;fontStyle=0;fontSize=7;fontFamily=Ubunto Mono;fontSource=https%3A%2F%2Ffonts.googleapis.com%2Fcss%3Ffamily%3DUbunto%2BMono;horizontal=1;fontColor=#a12828;labelPosition=center;verticalLabelPosition=middle;" parent="1" vertex="1">
                    <mxGeometry x="305" y="630" width="30" height="10" as="geometry"/>
                </mxCell>
                <mxCell id="67" value="&lt;font style=&quot;font-size: 7px&quot;&gt;1&lt;/font&gt;" style="text;html=1;fillColor=none;align=center;verticalAlign=middle;whiteSpace=wrap;labelBackgroundColor=none;fontStyle=0;fontSize=7;fontFamily=Ubunto Mono;fontSource=https%3A%2F%2Ffonts.googleapis.com%2Fcss%3Ffamily%3DUbunto%2BMono;horizontal=1;fontColor=#a12828;labelPosition=center;verticalLabelPosition=middle;" parent="1" vertex="1">
                    <mxGeometry x="335" y="630" width="30" height="10" as="geometry"/>
                </mxCell>
                <mxCell id="68" value="&lt;font style=&quot;font-size: 7px&quot;&gt;2&lt;/font&gt;" style="text;html=1;fillColor=none;align=center;verticalAlign=middle;whiteSpace=wrap;labelBackgroundColor=none;fontStyle=0;fontSize=7;fontFamily=Ubunto Mono;fontSource=https%3A%2F%2Ffonts.googleapis.com%2Fcss%3Ffamily%3DUbunto%2BMono;horizontal=1;fontColor=#a12828;labelPosition=center;verticalLabelPosition=middle;" parent="1" vertex="1">
                    <mxGeometry x="365" y="630" width="30" height="10" as="geometry"/>
                </mxCell>
                <mxCell id="69" value="&lt;font style=&quot;font-size: 7px&quot;&gt;3&lt;/font&gt;" style="text;html=1;fillColor=none;align=center;verticalAlign=middle;whiteSpace=wrap;labelBackgroundColor=none;fontStyle=0;fontSize=7;fontFamily=Ubunto Mono;fontSource=https%3A%2F%2Ffonts.googleapis.com%2Fcss%3Ffamily%3DUbunto%2BMono;horizontal=1;fontColor=#a12828;labelPosition=center;verticalLabelPosition=middle;" parent="1" vertex="1">
                    <mxGeometry x="395" y="630" width="30" height="10" as="geometry"/>
                </mxCell>
                <mxCell id="70" value="&lt;font style=&quot;font-size: 7px&quot;&gt;4&lt;/font&gt;" style="text;html=1;fillColor=none;align=center;verticalAlign=middle;whiteSpace=wrap;labelBackgroundColor=none;fontStyle=0;fontSize=7;fontFamily=Ubunto Mono;fontSource=https%3A%2F%2Ffonts.googleapis.com%2Fcss%3Ffamily%3DUbunto%2BMono;horizontal=1;fontColor=#a12828;labelPosition=center;verticalLabelPosition=middle;" parent="1" vertex="1">
                    <mxGeometry x="425" y="630" width="30" height="10" as="geometry"/>
                </mxCell>
                <mxCell id="71" value="&lt;font style=&quot;font-size: 12px&quot; data-font-src=&quot;https://fonts.googleapis.com/css?family=Nunito&quot; face=&quot;Nunito&quot;&gt;front&lt;/font&gt;" style="text;html=1;fillColor=none;align=center;verticalAlign=middle;whiteSpace=wrap;labelBackgroundColor=none;fontStyle=0;fontSize=14;fontFamily=Ubunto Mono;fontSource=https%3A%2F%2Ffonts.googleapis.com%2Fcss%3Ffamily%3DUbunto%2BMono;" parent="1" vertex="1">
                    <mxGeometry x="484" y="660" width="32" height="10" as="geometry"/>
                </mxCell>
                <mxCell id="72" style="edgeStyle=orthogonalEdgeStyle;curved=1;orthogonalLoop=1;jettySize=auto;html=1;exitX=1.071;exitY=0.438;exitDx=0;exitDy=0;entryX=0.5;entryY=1;entryDx=0;entryDy=0;fontFamily=Lucida Console;fontSize=14;noLabel=1;fontColor=none;strokeColor=#CCCCCC;exitPerimeter=0;" parent="1" source="71" target="64" edge="1">
                    <mxGeometry x="291" y="400" as="geometry">
                        <Array as="points">
                            <mxPoint x="530" y="664"/>
                        </Array>
                        <mxPoint x="375" y="242.5" as="sourcePoint"/>
                        <mxPoint x="330" y="260" as="targetPoint"/>
                    </mxGeometry>
                </mxCell>
                <mxCell id="73" value="&lt;font style=&quot;font-size: 12px&quot; data-font-src=&quot;https://fonts.googleapis.com/css?family=Nunito&quot; face=&quot;Nunito&quot;&gt;back&lt;/font&gt;" style="text;html=1;fillColor=none;align=center;verticalAlign=middle;whiteSpace=wrap;labelBackgroundColor=none;fontStyle=0;fontSize=14;fontFamily=Ubunto Mono;fontSource=https%3A%2F%2Ffonts.googleapis.com%2Fcss%3Ffamily%3DUbunto%2BMono;" parent="1" vertex="1">
                    <mxGeometry x="364" y="660" width="32" height="10" as="geometry"/>
                </mxCell>
                <mxCell id="74" style="edgeStyle=orthogonalEdgeStyle;curved=1;orthogonalLoop=1;jettySize=auto;html=1;exitX=0;exitY=0.5;exitDx=0;exitDy=0;entryX=0.5;entryY=1;entryDx=0;entryDy=0;fontFamily=Lucida Console;fontSize=14;noLabel=1;fontColor=none;strokeColor=#CCCCCC;" parent="1" source="73" target="67" edge="1">
                    <mxGeometry x="21" y="400" as="geometry">
                        <Array as="points">
                            <mxPoint x="350" y="665"/>
                        </Array>
                        <mxPoint x="115" y="252.5" as="sourcePoint"/>
                        <mxPoint x="120" y="250" as="targetPoint"/>
                    </mxGeometry>
                </mxCell>
                <mxCell id="79" style="edgeStyle=orthogonalEdgeStyle;rounded=0;orthogonalLoop=1;jettySize=auto;html=1;entryX=0;entryY=0.25;entryDx=0;entryDy=0;exitX=1;exitY=0.25;exitDx=0;exitDy=0;fontSize=10;" parent="1" source="76" target="77" edge="1">
                    <mxGeometry relative="1" as="geometry"/>
                </mxCell>
                <mxCell id="76" value="Mary" style="whiteSpace=wrap;html=1;fillColor=#66B2FF;fontSize=10;" parent="1" vertex="1">
                    <mxGeometry x="-540" y="170" width="50" height="30" as="geometry"/>
                </mxCell>
                <mxCell id="80" style="edgeStyle=orthogonalEdgeStyle;rounded=0;orthogonalLoop=1;jettySize=auto;html=1;entryX=1;entryY=0.75;entryDx=0;entryDy=0;fontSize=10;" parent="1" source="77" target="76" edge="1">
                    <mxGeometry relative="1" as="geometry">
                        <Array as="points">
                            <mxPoint x="-460" y="193"/>
                        </Array>
                    </mxGeometry>
                </mxCell>
                <mxCell id="77" value="Ivan" style="whiteSpace=wrap;html=1;gradientDirection=west;fillColor=#66B2FF;fontSize=10;" parent="1" vertex="1">
                    <mxGeometry x="-460" y="170" width="50" height="30" as="geometry"/>
                </mxCell>
                <mxCell id="81" style="edgeStyle=orthogonalEdgeStyle;rounded=0;orthogonalLoop=1;jettySize=auto;html=1;entryX=0;entryY=0.25;entryDx=0;entryDy=0;exitX=1;exitY=0.25;exitDx=0;exitDy=0;fontSize=10;" parent="1" target="83" edge="1">
                    <mxGeometry relative="1" as="geometry">
                        <mxPoint x="-410" y="177.5" as="sourcePoint"/>
                    </mxGeometry>
                </mxCell>
                <mxCell id="82" style="edgeStyle=orthogonalEdgeStyle;rounded=0;orthogonalLoop=1;jettySize=auto;html=1;entryX=1;entryY=0.75;entryDx=0;entryDy=0;fontSize=10;" parent="1" source="83" target="77" edge="1">
                    <mxGeometry relative="1" as="geometry">
                        <mxPoint x="-408.65" y="193.5200000000001" as="targetPoint"/>
                        <Array as="points">
                            <mxPoint x="-380" y="193"/>
                        </Array>
                    </mxGeometry>
                </mxCell>
                <mxCell id="83" value="Stephanie" style="whiteSpace=wrap;html=1;gradientDirection=west;fillColor=#66B2FF;fontSize=10;" parent="1" vertex="1">
                    <mxGeometry x="-380" y="170" width="50" height="30" as="geometry"/>
                </mxCell>
                <mxCell id="84" style="edgeStyle=orthogonalEdgeStyle;rounded=0;orthogonalLoop=1;jettySize=auto;html=1;entryX=0;entryY=0.25;entryDx=0;entryDy=0;exitX=1;exitY=0.25;exitDx=0;exitDy=0;fontSize=10;" parent="1" target="86" edge="1">
                    <mxGeometry relative="1" as="geometry">
                        <mxPoint x="-330" y="177.5" as="sourcePoint"/>
                    </mxGeometry>
                </mxCell>
                <mxCell id="85" style="edgeStyle=orthogonalEdgeStyle;rounded=0;orthogonalLoop=1;jettySize=auto;html=1;entryX=1;entryY=0.75;entryDx=0;entryDy=0;fontSize=10;" parent="1" source="86" target="83" edge="1">
                    <mxGeometry relative="1" as="geometry">
                        <mxPoint x="-328.65" y="193.5200000000001" as="targetPoint"/>
                        <Array as="points">
                            <mxPoint x="-300" y="193"/>
                        </Array>
                    </mxGeometry>
                </mxCell>
                <mxCell id="94" style="edgeStyle=orthogonalEdgeStyle;rounded=0;orthogonalLoop=1;jettySize=auto;html=1;entryX=0;entryY=0.25;entryDx=0;entryDy=0;fontSize=10;" parent="1" source="86" target="89" edge="1">
                    <mxGeometry relative="1" as="geometry">
                        <Array as="points">
                            <mxPoint x="-250" y="177"/>
                        </Array>
                    </mxGeometry>
                </mxCell>
                <mxCell id="86" value="Andrew" style="whiteSpace=wrap;html=1;gradientDirection=west;fillColor=#66B2FF;fontSize=10;" parent="1" vertex="1">
                    <mxGeometry x="-300" y="170" width="50" height="30" as="geometry"/>
                </mxCell>
                <mxCell id="88" style="edgeStyle=orthogonalEdgeStyle;rounded=0;orthogonalLoop=1;jettySize=auto;html=1;fontSize=10;entryX=1;entryY=0.75;entryDx=0;entryDy=0;" parent="1" source="89" target="86" edge="1">
                    <mxGeometry relative="1" as="geometry">
                        <mxPoint x="-249" y="194" as="targetPoint"/>
                        <Array as="points">
                            <mxPoint x="-220" y="193"/>
                        </Array>
                    </mxGeometry>
                </mxCell>
                <mxCell id="89" value="Miguel" style="whiteSpace=wrap;html=1;gradientDirection=west;fillColor=#66B2FF;fontSize=10;" parent="1" vertex="1">
                    <mxGeometry x="-220" y="170" width="50" height="30" as="geometry"/>
                </mxCell>
                <mxCell id="90" style="edgeStyle=orthogonalEdgeStyle;rounded=0;orthogonalLoop=1;jettySize=auto;html=1;entryX=0;entryY=0.25;entryDx=0;entryDy=0;exitX=1;exitY=0.25;exitDx=0;exitDy=0;fontSize=10;" parent="1" target="92" edge="1">
                    <mxGeometry relative="1" as="geometry">
                        <mxPoint x="-170" y="177.5" as="sourcePoint"/>
                    </mxGeometry>
                </mxCell>
                <mxCell id="91" style="edgeStyle=orthogonalEdgeStyle;rounded=0;orthogonalLoop=1;jettySize=auto;html=1;entryX=1;entryY=0.75;entryDx=0;entryDy=0;fontSize=10;" parent="1" source="92" target="89" edge="1">
                    <mxGeometry relative="1" as="geometry">
                        <mxPoint x="-168.64999999999998" y="193.5200000000001" as="targetPoint"/>
                        <Array as="points">
                            <mxPoint x="-140" y="192"/>
                        </Array>
                    </mxGeometry>
                </mxCell>
                <mxCell id="92" value="Adrianna" style="whiteSpace=wrap;html=1;gradientDirection=west;fillColor=#66B2FF;fontSize=10;" parent="1" vertex="1">
                    <mxGeometry x="-140" y="170" width="50" height="30" as="geometry"/>
                </mxCell>
                <mxCell id="98" style="edgeStyle=orthogonalEdgeStyle;rounded=0;orthogonalLoop=1;jettySize=auto;html=1;entryX=0.5;entryY=0;entryDx=0;entryDy=0;fontSize=10;fontColor=#FF8000;strokeColor=#FF8000;" parent="1" source="95" target="76" edge="1">
                    <mxGeometry relative="1" as="geometry"/>
                </mxCell>
                <mxCell id="95" value="head" style="text;html=1;strokeColor=none;fillColor=none;align=center;verticalAlign=middle;whiteSpace=wrap;rounded=0;fontSize=10;fontColor=#FF8000;" parent="1" vertex="1">
                    <mxGeometry x="-535" y="120" width="40" height="20" as="geometry"/>
                </mxCell>
                <mxCell id="ipRp_I_E8dzvMIBy4bv_-99" style="edgeStyle=orthogonalEdgeStyle;rounded=0;orthogonalLoop=1;jettySize=auto;html=1;entryX=0.5;entryY=0;entryDx=0;entryDy=0;" parent="1" source="ipRp_I_E8dzvMIBy4bv_-102" target="ipRp_I_E8dzvMIBy4bv_-100" edge="1">
                    <mxGeometry relative="1" as="geometry">
                        <mxPoint x="-500" y="370" as="targetPoint"/>
                        <Array as="points">
                            <mxPoint x="-420" y="340"/>
                            <mxPoint x="-730" y="340"/>
                        </Array>
                    </mxGeometry>
                </mxCell>
                <mxCell id="ipRp_I_E8dzvMIBy4bv_-126" style="edgeStyle=orthogonalEdgeStyle;rounded=0;orthogonalLoop=1;jettySize=auto;html=1;entryX=0.5;entryY=0;entryDx=0;entryDy=0;" parent="1" source="ipRp_I_E8dzvMIBy4bv_-98" target="ipRp_I_E8dzvMIBy4bv_-106" edge="1">
                    <mxGeometry relative="1" as="geometry">
                        <Array as="points">
                            <mxPoint x="-460" y="340"/>
                            <mxPoint x="-322" y="340"/>
                            <mxPoint x="-322" y="370"/>
                        </Array>
                    </mxGeometry>
                </mxCell>
                <mxCell id="ipRp_I_E8dzvMIBy4bv_-98" value="&lt;font data-font-src=&quot;https://fonts.googleapis.com/css?family=Ubunto+Mono&quot; face=&quot;Ubunto Mono&quot;&gt;recursivePrint(&quot;Mary&quot;)&lt;/font&gt;" style="whiteSpace=wrap;html=1;fillColor=#66B2FF;fontSize=10;" parent="1" vertex="1">
                    <mxGeometry x="-540" y="280" width="160" height="30" as="geometry"/>
                </mxCell>
                <mxCell id="ipRp_I_E8dzvMIBy4bv_-104" style="edgeStyle=orthogonalEdgeStyle;rounded=0;orthogonalLoop=1;jettySize=auto;html=1;" parent="1" source="ipRp_I_E8dzvMIBy4bv_-100" target="ipRp_I_E8dzvMIBy4bv_-103" edge="1">
                    <mxGeometry relative="1" as="geometry"/>
                </mxCell>
                <mxCell id="ipRp_I_E8dzvMIBy4bv_-100" value="&lt;font data-font-src=&quot;https://fonts.googleapis.com/css?family=Ubunto+Mono&quot; face=&quot;Ubunto Mono&quot;&gt;recursivePrint(&quot;Stephanie&quot;)&lt;/font&gt;" style="whiteSpace=wrap;html=1;fillColor=#66B2FF;fontSize=10;" parent="1" vertex="1">
                    <mxGeometry x="-680" y="370" width="160" height="30" as="geometry"/>
                </mxCell>
                <mxCell id="ipRp_I_E8dzvMIBy4bv_-101" value="&lt;font data-font-src=&quot;https://fonts.googleapis.com/css?family=Palatino+Linotype&quot; face=&quot;Palatino Linotype&quot;&gt;Line 7 &lt;br&gt;&lt;/font&gt;" style="text;html=1;strokeColor=none;fillColor=none;align=center;verticalAlign=middle;whiteSpace=wrap;rounded=0;" parent="1" vertex="1">
                    <mxGeometry x="-680" y="360" width="40" height="10" as="geometry"/>
                </mxCell>
                <mxCell id="ipRp_I_E8dzvMIBy4bv_-146" style="edgeStyle=orthogonalEdgeStyle;rounded=0;orthogonalLoop=1;jettySize=auto;html=1;entryX=0.5;entryY=0;entryDx=0;entryDy=0;fontColor=#FF8000;" parent="1" source="ipRp_I_E8dzvMIBy4bv_-103" target="ipRp_I_E8dzvMIBy4bv_-109" edge="1">
                    <mxGeometry relative="1" as="geometry"/>
                </mxCell>
                <mxCell id="ipRp_I_E8dzvMIBy4bv_-103" value="1. Print: &quot;Stephanie&quot;" style="whiteSpace=wrap;html=1;fillColor=#66B2FF;fontSize=10;strokeColor=#00CC00;strokeWidth=2;" parent="1" vertex="1">
                    <mxGeometry x="-680" y="430" width="160" height="30" as="geometry"/>
                </mxCell>
                <mxCell id="ipRp_I_E8dzvMIBy4bv_-148" style="edgeStyle=orthogonalEdgeStyle;rounded=0;orthogonalLoop=1;jettySize=auto;html=1;entryX=0.5;entryY=0;entryDx=0;entryDy=0;fontColor=#FF8000;" parent="1" source="ipRp_I_E8dzvMIBy4bv_-106" target="ipRp_I_E8dzvMIBy4bv_-125" edge="1">
                    <mxGeometry relative="1" as="geometry"/>
                </mxCell>
                <mxCell id="ipRp_I_E8dzvMIBy4bv_-106" value="4. Print: &quot;4&quot;" style="whiteSpace=wrap;html=1;fillColor=#66B2FF;fontSize=10;strokeColor=#00CC00;strokeWidth=2;" parent="1" vertex="1">
                    <mxGeometry x="-402.5" y="370" width="160" height="30" as="geometry"/>
                </mxCell>
                <mxCell id="ipRp_I_E8dzvMIBy4bv_-113" style="edgeStyle=orthogonalEdgeStyle;rounded=0;orthogonalLoop=1;jettySize=auto;html=1;" parent="1" source="ipRp_I_E8dzvMIBy4bv_-109" target="ipRp_I_E8dzvMIBy4bv_-111" edge="1">
                    <mxGeometry relative="1" as="geometry"/>
                </mxCell>
                <mxCell id="ipRp_I_E8dzvMIBy4bv_-116" style="edgeStyle=orthogonalEdgeStyle;rounded=0;orthogonalLoop=1;jettySize=auto;html=1;" parent="1" source="ipRp_I_E8dzvMIBy4bv_-109" target="ipRp_I_E8dzvMIBy4bv_-115" edge="1">
                    <mxGeometry relative="1" as="geometry"/>
                </mxCell>
                <mxCell id="ipRp_I_E8dzvMIBy4bv_-109" value="&lt;font data-font-src=&quot;https://fonts.googleapis.com/css?family=Ubunto+Mono&quot; face=&quot;Ubunto Mono&quot;&gt;recursivePrint(&quot;Andrew&quot;)&lt;/font&gt;" style="whiteSpace=wrap;html=1;fillColor=#66B2FF;fontSize=10;" parent="1" vertex="1">
                    <mxGeometry x="-680" y="490" width="160" height="30" as="geometry"/>
                </mxCell>
                <mxCell id="ipRp_I_E8dzvMIBy4bv_-119" style="edgeStyle=orthogonalEdgeStyle;rounded=0;orthogonalLoop=1;jettySize=auto;html=1;" parent="1" source="ipRp_I_E8dzvMIBy4bv_-111" target="ipRp_I_E8dzvMIBy4bv_-118" edge="1">
                    <mxGeometry relative="1" as="geometry"/>
                </mxCell>
                <mxCell id="ipRp_I_E8dzvMIBy4bv_-111" value="&lt;font data-font-src=&quot;https://fonts.googleapis.com/css?family=Ubunto+Mono&quot; face=&quot;Ubunto Mono&quot;&gt;recursivePrint(&quot;Adrianna&quot;)&lt;/font&gt;" style="whiteSpace=wrap;html=1;fillColor=#66B2FF;fontSize=10;" parent="1" vertex="1">
                    <mxGeometry x="-770" y="590" width="160" height="30" as="geometry"/>
                </mxCell>
                <mxCell id="ipRp_I_E8dzvMIBy4bv_-114" value="1" style="text;html=1;strokeColor=none;fillColor=none;align=center;verticalAlign=middle;whiteSpace=wrap;rounded=0;" parent="1" vertex="1">
                    <mxGeometry x="-660" y="540" width="40" height="20" as="geometry"/>
                </mxCell>
                <mxCell id="ipRp_I_E8dzvMIBy4bv_-123" style="edgeStyle=orthogonalEdgeStyle;rounded=0;orthogonalLoop=1;jettySize=auto;html=1;entryX=0.5;entryY=0;entryDx=0;entryDy=0;" parent="1" source="ipRp_I_E8dzvMIBy4bv_-115" target="ipRp_I_E8dzvMIBy4bv_-122" edge="1">
                    <mxGeometry relative="1" as="geometry"/>
                </mxCell>
                <mxCell id="ipRp_I_E8dzvMIBy4bv_-115" value="3. Print: &quot;6&quot;" style="whiteSpace=wrap;html=1;fillColor=#66B2FF;fontSize=10;strokeColor=#00CC00;strokeWidth=2;" parent="1" vertex="1">
                    <mxGeometry x="-590" y="590" width="160" height="30" as="geometry"/>
                </mxCell>
                <mxCell id="ipRp_I_E8dzvMIBy4bv_-117" value="2" style="text;html=1;strokeColor=none;fillColor=none;align=center;verticalAlign=middle;whiteSpace=wrap;rounded=0;" parent="1" vertex="1">
                    <mxGeometry x="-580" y="540" width="40" height="20" as="geometry"/>
                </mxCell>
                <mxCell id="ipRp_I_E8dzvMIBy4bv_-120" style="edgeStyle=orthogonalEdgeStyle;rounded=0;orthogonalLoop=1;jettySize=auto;html=1;entryX=0.5;entryY=0;entryDx=0;entryDy=0;" parent="1" source="ipRp_I_E8dzvMIBy4bv_-118" target="ipRp_I_E8dzvMIBy4bv_-121" edge="1">
                    <mxGeometry relative="1" as="geometry">
                        <mxPoint x="-690" y="710" as="targetPoint"/>
                    </mxGeometry>
                </mxCell>
                <mxCell id="ipRp_I_E8dzvMIBy4bv_-118" value="2. Print: &quot;Recursion is cool!&quot;" style="whiteSpace=wrap;html=1;fillColor=#66B2FF;fontSize=10;strokeColor=#00CC00;strokeWidth=2;" parent="1" vertex="1">
                    <mxGeometry x="-770" y="650" width="160" height="30" as="geometry"/>
                </mxCell>
                <mxCell id="ipRp_I_E8dzvMIBy4bv_-121" value="Base case reached since Adrianna's &lt;font data-font-src=&quot;https://fonts.googleapis.com/css?family=Ubunto+Mono&quot; face=&quot;Ubunto Mono&quot;&gt;next&lt;/font&gt; is &lt;font data-font-src=&quot;https://fonts.googleapis.com/css?family=Ubunto+Mono&quot; face=&quot;Ubunto Mono&quot;&gt;null&lt;/font&gt;" style="text;html=1;strokeColor=none;fillColor=none;align=center;verticalAlign=middle;whiteSpace=wrap;rounded=0;" parent="1" vertex="1">
                    <mxGeometry x="-745" y="710" width="110" height="50" as="geometry"/>
                </mxCell>
                <mxCell id="ipRp_I_E8dzvMIBy4bv_-122" value="No more lines to execute" style="text;html=1;strokeColor=none;fillColor=none;align=center;verticalAlign=middle;whiteSpace=wrap;rounded=0;" parent="1" vertex="1">
                    <mxGeometry x="-565" y="650" width="110" height="40" as="geometry"/>
                </mxCell>
                <mxCell id="ipRp_I_E8dzvMIBy4bv_-124" value="&lt;font data-font-src=&quot;https://fonts.googleapis.com/css?family=Palatino+Linotype&quot; face=&quot;Palatino Linotype&quot;&gt;Line 8&lt;br&gt;&lt;/font&gt;" style="text;html=1;strokeColor=none;fillColor=none;align=center;verticalAlign=middle;whiteSpace=wrap;rounded=0;" parent="1" vertex="1">
                    <mxGeometry x="-402.5" y="360" width="40" height="10" as="geometry"/>
                </mxCell>
                <mxCell id="ipRp_I_E8dzvMIBy4bv_-131" style="edgeStyle=orthogonalEdgeStyle;rounded=0;orthogonalLoop=1;jettySize=auto;html=1;entryX=0.5;entryY=0;entryDx=0;entryDy=0;" parent="1" source="ipRp_I_E8dzvMIBy4bv_-125" target="ipRp_I_E8dzvMIBy4bv_-130" edge="1">
                    <mxGeometry relative="1" as="geometry"/>
                </mxCell>
                <mxCell id="ipRp_I_E8dzvMIBy4bv_-125" value="&lt;font data-font-src=&quot;https://fonts.googleapis.com/css?family=Ubunto+Mono&quot; face=&quot;Ubunto Mono&quot;&gt;recursivePrint(null)&lt;/font&gt;" style="whiteSpace=wrap;html=1;fillColor=#66B2FF;fontSize=10;" parent="1" vertex="1">
                    <mxGeometry x="-402.5" y="430" width="160" height="30" as="geometry"/>
                </mxCell>
                <mxCell id="ipRp_I_E8dzvMIBy4bv_-127" value="2" style="text;html=1;strokeColor=none;fillColor=none;align=center;verticalAlign=middle;whiteSpace=wrap;rounded=0;" parent="1" vertex="1">
                    <mxGeometry x="-410" y="330" width="40" height="10" as="geometry"/>
                </mxCell>
                <mxCell id="ipRp_I_E8dzvMIBy4bv_-102" value="1" style="text;html=1;strokeColor=none;fillColor=none;align=center;verticalAlign=middle;whiteSpace=wrap;rounded=0;" parent="1" vertex="1">
                    <mxGeometry x="-540" y="330" width="40" height="10" as="geometry"/>
                </mxCell>
                <mxCell id="ipRp_I_E8dzvMIBy4bv_-129" value="&lt;font data-font-src=&quot;https://fonts.googleapis.com/css?family=Palatino+Linotype&quot; face=&quot;Palatino Linotype&quot;&gt;Line 9&lt;br&gt;&lt;/font&gt;" style="text;html=1;strokeColor=none;fillColor=none;align=center;verticalAlign=middle;whiteSpace=wrap;rounded=0;" parent="1" vertex="1">
                    <mxGeometry x="-402.5" y="420" width="40" height="10" as="geometry"/>
                </mxCell>
                <mxCell id="ipRp_I_E8dzvMIBy4bv_-133" style="edgeStyle=orthogonalEdgeStyle;rounded=0;orthogonalLoop=1;jettySize=auto;html=1;entryX=0.5;entryY=0;entryDx=0;entryDy=0;fontColor=#FF8000;" parent="1" source="ipRp_I_E8dzvMIBy4bv_-130" target="ipRp_I_E8dzvMIBy4bv_-132" edge="1">
                    <mxGeometry relative="1" as="geometry"/>
                </mxCell>
                <mxCell id="ipRp_I_E8dzvMIBy4bv_-130" value="5. Print: &quot;Recursion is cool!&quot;" style="whiteSpace=wrap;html=1;fillColor=#66B2FF;fontSize=10;strokeColor=#00CC00;strokeWidth=2;" parent="1" vertex="1">
                    <mxGeometry x="-402.5" y="490" width="160" height="30" as="geometry"/>
                </mxCell>
                <mxCell id="ipRp_I_E8dzvMIBy4bv_-132" value="Base case reached since Mary's &lt;font data-font-src=&quot;https://fonts.googleapis.com/css?family=Ubunto+Mono&quot; face=&quot;Ubunto Mono&quot;&gt;preveious&lt;/font&gt; is &lt;font data-font-src=&quot;https://fonts.googleapis.com/css?family=Ubunto+Mono&quot; face=&quot;Ubunto Mono&quot;&gt;null&lt;/font&gt;" style="text;html=1;strokeColor=none;fillColor=none;align=center;verticalAlign=middle;whiteSpace=wrap;rounded=0;" parent="1" vertex="1">
                    <mxGeometry x="-390" y="550" width="135" height="50" as="geometry"/>
                </mxCell>
                <mxCell id="ipRp_I_E8dzvMIBy4bv_-134" value="&lt;font data-font-src=&quot;https://fonts.googleapis.com/css?family=Palatino+Linotype&quot; face=&quot;Palatino Linotype&quot;&gt;Line 12&lt;br&gt;&lt;/font&gt;" style="text;html=1;strokeColor=none;fillColor=none;align=center;verticalAlign=middle;whiteSpace=wrap;rounded=0;" parent="1" vertex="1">
                    <mxGeometry x="-680" y="420" width="45" height="10" as="geometry"/>
                </mxCell>
                <mxCell id="ipRp_I_E8dzvMIBy4bv_-135" value="&lt;font data-font-src=&quot;https://fonts.googleapis.com/css?family=Palatino+Linotype&quot; face=&quot;Palatino Linotype&quot;&gt;Line 13&lt;/font&gt;" style="text;html=1;strokeColor=none;fillColor=none;align=center;verticalAlign=middle;whiteSpace=wrap;rounded=0;" parent="1" vertex="1">
                    <mxGeometry x="-680" y="480" width="45" height="10" as="geometry"/>
                </mxCell>
                <mxCell id="ipRp_I_E8dzvMIBy4bv_-141" value="&lt;font data-font-src=&quot;https://fonts.googleapis.com/css?family=Palatino+Linotype&quot; face=&quot;Palatino Linotype&quot;&gt;Line 16&lt;/font&gt;" style="text;html=1;strokeColor=none;fillColor=none;align=center;verticalAlign=middle;whiteSpace=wrap;rounded=0;" parent="1" vertex="1">
                    <mxGeometry x="-770" y="580" width="45" height="10" as="geometry"/>
                </mxCell>
                <mxCell id="ipRp_I_E8dzvMIBy4bv_-142" value="&lt;font data-font-src=&quot;https://fonts.googleapis.com/css?family=Palatino+Linotype&quot; face=&quot;Palatino Linotype&quot;&gt;Line 3&lt;br&gt;&lt;/font&gt;" style="text;html=1;strokeColor=none;fillColor=none;align=center;verticalAlign=middle;whiteSpace=wrap;rounded=0;" parent="1" vertex="1">
                    <mxGeometry x="-770" y="640" width="35" height="10" as="geometry"/>
                </mxCell>
                <mxCell id="ipRp_I_E8dzvMIBy4bv_-143" value="&lt;font data-font-src=&quot;https://fonts.googleapis.com/css?family=Palatino+Linotype&quot; face=&quot;Palatino Linotype&quot;&gt;Line 17&lt;/font&gt;" style="text;html=1;strokeColor=none;fillColor=none;align=center;verticalAlign=middle;whiteSpace=wrap;rounded=0;" parent="1" vertex="1">
                    <mxGeometry x="-590" y="580" width="45" height="10" as="geometry"/>
                </mxCell>
                <mxCell id="ipRp_I_E8dzvMIBy4bv_-144" value="&lt;font data-font-src=&quot;https://fonts.googleapis.com/css?family=Palatino+Linotype&quot; face=&quot;Palatino Linotype&quot;&gt;Line 3&lt;br&gt;&lt;/font&gt;" style="text;html=1;strokeColor=none;fillColor=none;align=center;verticalAlign=middle;whiteSpace=wrap;rounded=0;" parent="1" vertex="1">
                    <mxGeometry x="-402.5" y="480" width="40" height="10" as="geometry"/>
                </mxCell>
            </root>
        </mxGraphModel>
    </diagram>
</mxfile>